<?xml version="1.0" encoding="UTF-8" standalone="no"?>
<!-- Created with Inkscape (http://www.inkscape.org/) -->

<svg
   width="500"
   height="500"
   viewBox="0 0 500 500"
   version="1.1"
   id="svg1"
   xml:space="preserve"
   inkscape:version="1.4.3 (0d15f75, 2025-12-25)"
   sodipodi:docname="csopl-logo.svg"
   xmlns:inkscape="http://www.inkscape.org/namespaces/inkscape"
   xmlns:sodipodi="http://sodipodi.sourceforge.net/DTD/sodipodi-0.dtd"
   xmlns:xlink="http://www.w3.org/1999/xlink"
   xmlns="http://www.w3.org/2000/svg"
   xmlns:svg="http://www.w3.org/2000/svg"><sodipodi:namedview
     id="namedview1"
     pagecolor="#ffffff"
     bordercolor="#000000"
     borderopacity="0.25"
     inkscape:showpageshadow="2"
     inkscape:pageopacity="0.0"
     inkscape:pagecheckerboard="0"
     inkscape:deskcolor="#d1d1d1"
     inkscape:document-units="px"
     inkscape:zoom="1.2351411"
     inkscape:cx="144.92272"
     inkscape:cy="193.09535"
     inkscape:window-width="1920"
     inkscape:window-height="1009"
     inkscape:window-x="1912"
     inkscape:window-y="-8"
     inkscape:window-maximized="1"
     inkscape:current-layer="layer1" /><defs
     id="defs1"><linearGradient
       id="linearGradient8"
       inkscape:collect="always"><stop
         style="stop-color:#292826;stop-opacity:1;"
         offset="0.51694918"
         id="stop8" /><stop
         style="stop-color:#292826;stop-opacity:0;"
         offset="0.73050845"
         id="stop9" /></linearGradient><rect
       x="148.84758"
       y="80.148697"
       width="596.53528"
       height="186.63197"
       id="rect8" /><linearGradient
       inkscape:collect="always"
       xlink:href="#linearGradient8"
       id="linearGradient9"
       x1="499.99994"
       y1="-271.03012"
       x2="499.99997"
       y2="578.43604"
       gradientUnits="userSpaceOnUse"
       gradientTransform="matrix(0.58860498,0,0,0.65232423,-44.30249,149.73593)" /></defs><g
     inkscape:groupmode="layer"
     id="layer3"
     inkscape:label="BG"
     style="fill:#555555;fill-opacity:1"><rect
       style="fill:#043a62;fill-opacity:1;stroke:none;stroke-width:0.990148;stroke-opacity:1"
       id="rect7"
       width="500"
       height="500"
       x="0"
       y="0" /></g><g
     inkscape:label="Ref"
     inkscape:groupmode="layer"
     id="layer1"><path
       style="fill:url(#linearGradient9);stroke:none;stroke-width:0.5439;stroke-opacity:1"
       d="m 1.25066,348.74582 1.25066,-1.25407 8.504508,-7.80291 8.504516,-7.80287 7.253847,-6.28976 7.253856,-6.28971 4.502395,-3.62421 4.502377,-3.62426 2.181628,-2.33853 2.181611,-2.33858 8.638907,-10.85383 8.638899,-10.85387 1.936288,-2.08608 1.936188,-2.08606 2.001075,-1.21496 2.001056,-1.2151 4.934064,0.0879 4.934065,0.0879 7.572555,-8.5221 7.572556,-8.52208 5.502949,-6.03099 5.50295,-6.03098 7.00368,-7.44695 7.00372,-7.44694 4.93111,-4.91592 4.93109,-4.91592 1.57236,1.24899 1.57235,1.24892 8.25439,7.21111 8.25438,7.21103 5.60355,4.87292 5.60359,4.87283 10.65502,-12.15892 10.6551,-12.15892 2.25118,-1.09195 2.25118,-1.0919 2.75149,-0.73507 2.75143,-0.7351 1.8569,-0.83303 1.8568,-0.83295 12.1506,-14.92658 12.15058,-14.92658 10.19018,-12.58322 10.19019,-12.58323 7.56319,-8.71164 7.56318,-8.71165 0.50633,0.006 0.50628,0.005 3.25171,2.79511 3.25174,2.79511 8.50453,9.90983 8.50452,9.90984 5.09998,7.71194 5.09989,7.71196 2.1194,2.46663 2.11946,2.46665 1.34082,0.79181 1.34097,0.79181 3.4461,0.96831 3.44614,0.96831 1.80955,1.03025 1.8095,1.03025 1.97821,2.74057 1.97819,2.74057 5.53528,8.85446 5.5353,8.85449 3.18359,4.65426 3.18362,4.65426 4.15854,6.08136 4.15861,6.08134 3.34542,-2.68782 3.34537,-2.68774 8.6568,-7.47653 8.65668,-7.47666 3.20602,-2.7674 3.20605,-2.76748 1.64439,1.30554 1.64441,1.3055 3.50185,3.40441 3.50187,3.40443 6.71605,7.19755 6.71606,7.19764 13.29455,14.38694 13.29461,14.38692 2.25117,1.96701 2.25122,1.96704 4.98077,2.4686 4.98077,2.46848 3.00686,2.59959 3.00693,2.59961 7.12312,9.42571 7.12308,9.42572 4.45305,4.90308 4.45299,4.90316 7.86026,7.01274 7.86029,7.01269 6.84409,6.58768 6.8441,6.58765 3.11903,3.16536 3.11903,3.16532 -0.14334,0.16372 -0.14335,0.16367 -3.97623,-2.33515 -3.97616,-2.33522 -8.25439,-5.43807 -8.2544,-5.43808 -6.61907,-4.51943 -6.61906,-4.51944 -4.13663,-3.48348 -4.13663,-3.48347 -10.25544,-11.8332 -10.25544,-11.83324 -4.214,-1.52726 -4.21402,-1.52723 -3.03986,-2.52234 -3.03983,-2.52234 -1.75096,-1.78865 -1.75085,-1.78866 -5.25282,-5.52466 -5.25277,-5.52459 -0.92494,-0.82884 -0.92492,-0.82888 0.84694,2.25908 0.84691,2.25902 3.2428,8.83655 3.24264,8.83655 0.25242,0.58914 0.2524,0.58919 -3.10067,-3.65691 -3.10072,-3.65694 -3.67504,-5.63883 -3.67502,-5.63878 -1.74244,-3.55796 -1.74242,-3.55783 -2.31048,-5.95059 -2.31048,-5.95061 -1.34316,-1.8334 -1.34312,-1.8334 -5.50294,-5.63143 -5.50292,-5.63138 -0.96413,-1.00239 -0.96409,-1.00241 -0.18687,0.21333 -0.18685,0.21334 0.81111,6.77853 0.81108,6.77853 1.00501,5.42693 1.00503,5.4269 1.72714,7.06 1.72714,7.06002 0.74095,2.02497 0.74099,2.02501 -0.18949,0.21629 -0.1894,0.21631 -4.65843,-2.589 -4.65841,-2.58907 h -0.69542 -0.69528 l 0.33989,1.28536 0.33989,1.28528 1.4573,3.99876 1.45726,3.99884 1.61332,3.42752 1.61336,3.42755 2.34521,1.71373 2.34523,1.7138 3.65794,2.6542 3.65797,2.6542 4.25226,4.29527 4.25219,4.29531 10.75571,12.76808 10.75572,12.76809 1.72305,2.49805 1.72303,2.49807 -1.22276,-0.7404 -1.22277,-0.74038 -7.4154,-5.08014 -7.41543,-5.08015 -6.34187,-4.64016 -6.34184,-4.64018 -9.25497,-7.13219 -9.25491,-7.13221 -13.50716,-10.6798 -13.50717,-10.67981 -1.60101,-0.94082 -1.60102,-0.9408 h -1.45286 -1.45282 l -7.95199,10.63969 -7.95197,10.63971 -0.86856,1.49945 -0.86863,1.49946 0.30356,1.14255 0.30363,1.14251 2.46266,7.63764 2.46271,7.63768 -0.14676,0.4339 -0.14674,0.43393 -5.3676,-3.78715 -5.36762,-3.7871 -3.09314,-2.23459 -3.09317,-2.23449 -2.54501,1.62951 -2.54513,1.62951 -13.31995,9.27661 -13.31993,9.27666 -6.94083,4.30717 -6.94082,4.30721 -4.0021,1.95524 -4.00216,1.95516 -1.25064,0.41495 -1.25064,0.41488 1.50078,-1.84812 1.50081,-1.84806 9.75513,-9.76178 9.7552,-9.76178 4.00214,-3.99502 4.00209,-3.99503 -0.89321,0.38863 -0.89323,0.3886 -14.36486,4.55993 -14.36485,4.55991 -16.13978,4.84888 -16.1397,4.84889 -5.80312,1.48619 -5.80311,1.48625 -0.27727,-0.31664 -0.27729,-0.31664 0.20846,-0.17909 0.20845,-0.17904 9.25494,-9.05928 9.25488,-9.0592 2.14446,-2.61524 2.14446,-2.61529 4.0502,-6.85499 4.05019,-6.85512 3.03743,-4.85568 3.03747,-4.85567 2.60679,-3.76483 2.60684,-3.76475 2.40176,-2.41422 2.40176,-2.41412 3.51876,-1.899 3.51872,-1.89906 2.67262,-0.70326 2.67257,-0.70332 -0.67152,-0.70451 -0.67153,-0.70442 -5.64142,-5.27933 -5.64147,-5.2793 -0.61189,0.32639 -0.61188,0.32648 -8.00426,6.04173 -8.00423,6.04168 -8.42895,6.00779 -8.42892,6.00779 -0.2024,-0.23115 -0.20234,-0.23105 4.59228,-6.51987 4.59232,-6.51985 8.29126,-11.1154 8.29126,-11.11545 2.44203,-3.45159 2.44201,-3.45159 0.68462,-1.83821 0.68466,-1.83824 v -1.40642 -1.40641 l -4.85434,-5.03856 -4.85435,-5.03856 -1.44742,-1.69063 -1.44743,-1.69058 0.28485,-2.00442 0.28486,-2.00437 4.22956,-10.01516 4.22956,-10.01513 0.75066,-2.61179 0.75063,-2.61179 0.78658,-4.73482 0.78655,-4.73484 v -8.7914 -8.79136 h -0.47541 -0.47538 l -0.40004,0.7904 -0.40008,0.7904 -6.75363,8.20207 -6.75355,8.20208 -4.00215,4.86728 -4.0021,4.86729 -8.25436,10.23654 -8.25437,10.23654 -2.55219,3.18116 -2.55211,3.18117 -1.49202,1.99939 -1.49195,1.9994 -0.82374,1.71369 -0.82381,1.71385 -2.69506,7.99755 -2.69521,7.99757 -2.12399,5.71258 -2.12408,5.71256 -1.98763,4.57001 -1.98756,4.57005 -2.55388,4.28443 -2.55386,4.28442 -4.78153,7.16186 -4.78155,7.16186 -2.75149,4.10141 -2.75139,4.10133 -0.33757,0.0191 -0.33744,0.0191 1.98987,-5.85533 1.98988,-5.85534 5.02513,-11.81134 5.02509,-11.81127 -0.8236,-7.89704 -0.82355,-7.89703 -0.24209,-1.3153 -0.24205,-1.31539 -18.3369,21.1754 -18.33688,21.1754 -1.70729,2.70456 -1.70724,2.70454 -3.11502,5.42693 -3.11501,5.42694 -3.05203,4.31763 -3.05208,4.31769 -5.41445,4.79335 -5.41445,4.79327 -1.75089,1.50133 -1.75095,1.50132 -4.87758,3.79908 -4.87762,3.79908 0.009,-0.4156 0.009,-0.41562 3.0735,-4.85569 3.07355,-4.85567 2.8274,-4.85569 2.82744,-4.85565 1.17409,-2.21496 1.17407,-2.21501 -5.45806,3.30877 -5.45801,3.30884 -13.757311,8.68917 -13.75729,8.68931 -6.003195,3.58872 -6.003169,3.58876 1.750915,-2.14336 1.750951,-2.14336 6.753619,-7.59365 6.753502,-7.59368 2.505002,-2.49499 2.504948,-2.495 2.997984,-2.60544 2.998002,-2.60544 6.486432,-4.51926 6.48655,-4.51936 1.6201,-1.96137 1.62012,-1.96128 2.8189,-4.47077 2.81896,-4.47079 2.2067,-4.42184 2.20677,-4.42182 1.33058,-3.87267 1.33062,-3.87271 -0.26314,-0.30043 -0.26312,-0.30045 -4.65843,2.58905 -4.6584,2.58903 h -0.66163 -0.66165 v -0.22461 -0.22463 l 3.57733,-7.05893 3.57729,-7.05884 1.42261,-3.55088 1.42255,-3.55087 1.26416,-4.98127 1.2641,-4.98125 -0.14635,-0.5012 -0.14624,-0.50121 -4.31857,4.50456 -4.3186,4.5046 -9.92845,10.8059 -9.92847,10.80603 -2.650963,3.14001 -2.650943,3.14 -4.061278,6.8636 -4.061304,6.86354 -2.275254,3.42755 -2.275244,3.42757 -3.20623,4.45123 -3.206294,4.45129 -0.193936,-0.22145 -0.193944,-0.22151 2.04333,-7.57531 2.043294,-7.57525 0.267528,-0.79612 0.267529,-0.79614 h -3.924847 -3.924955 l -6.249114,7.56914 -6.249105,7.56911 -4.012011,4.52703 -4.012011,4.5269 -4.755938,4.05104 -4.755937,4.05094 -5.249371,3.50034 -5.249362,3.50036 -8.004244,4.9407 -8.004252,4.94066 -7.003706,3.90864 -7.003724,3.90865 -1.25066,0.38186 L 0,350 Z"
       id="path1" /><text
       xml:space="preserve"
       id="text7"
       style="font-style:normal;font-variant:normal;font-weight:900;font-stretch:normal;font-size:96px;font-family:Arial;-inkscape-font-specification:'Arial, Heavy';font-variant-ligatures:normal;font-variant-caps:normal;font-variant-numeric:normal;font-variant-east-asian:normal;writing-mode:lr-tb;direction:ltr;white-space:pre;shape-inside:url(#rect8);display:inline;fill:#e5ecea;fill-opacity:1;stroke:none;stroke-opacity:1"
       transform="translate(-64.394531,167.67061)"><tspan
         x="148.84766"
         y="166.22002"
         id="tspan1">CSOPL</tspan></text></g></svg>
